<svg width="22" height="21" viewBox="0 0 22 21" fill="none"
    xmlns="http://www.w3.org/2000/svg">
    <path d="M11.0001 21C6.95361 21.0024 3.30455 18.5659 1.75572 14.8276C0.206894 11.0893 1.0636 6.78606 3.92606 3.92598C6.45335 1.39868 10.137 0.411662 13.5893 1.33672C17.0417 2.26177 19.7383 4.95836 20.6633 8.41072C21.5884 11.8631 20.6014 15.5467 18.0741 18.074C16.2015 19.955 13.6542 21.0086 11.0001 21ZM3.00006 11.172C3.04737 15.5732 6.64116 19.1095 11.0426 19.086C15.444 19.0622 18.9996 15.4875 18.9996 11.086C18.9996 6.68449 15.444 3.10975 11.0426 3.08598C6.64116 3.06244 3.04737 6.59874 3.00006 11V11.172ZM8.40906 15L7.00006 13.59L9.59006 11L7.00006 8.40998L8.41006 6.99998L11.0001 9.58998L13.5901 6.99998L15.0001 8.40998L12.4101 11L15.0001 13.59L13.5911 15L11.0001 12.41L8.41006 15H8.40906Z" fill="#E7E9FF"/>
</svg>
