<svg width="18" height="18" viewBox="0 0 18 18" fill="none" xmlns="http://www.w3.org/2000/svg">
<path d="M9 3.00018C8.58579 3.00018 8.25 3.33597 8.25 3.75018V10.8969L5.08624 7.7297C4.78056 7.42368 4.28495 7.42368 3.97926 7.7297C3.67358 8.03572 3.67358 8.53187 3.97926 8.83789L8.40717 13.2707C8.57003 13.4337 8.7868 13.5099 9.00003 13.4992C9.21325 13.5099 9.43001 13.4337 9.59285 13.2707L14.0208 8.83789C14.3264 8.53187 14.3264 8.03572 14.0208 7.7297C13.7151 7.42368 13.2195 7.42368 12.9138 7.7297L9.75 10.897V3.75018C9.75 3.33597 9.41421 3.00018 9 3.00018Z" fill="white"/>
<path d="M3.75 15.7502C3.75 15.336 4.08579 15.0002 4.5 15.0002H13.5C13.9142 15.0002 14.25 15.336 14.25 15.7502C14.25 16.1644 13.9142 16.5002 13.5 16.5002H4.5C4.08579 16.5002 3.75 16.1644 3.75 15.7502Z" fill="white"/>
</svg>
