<svg width="16" height="17" viewBox="0 0 16 17" fill="none"
    xmlns="http://www.w3.org/2000/svg">
    <path d="M13.3935 9.08875L12.2752 10.2118L13.5835 11.5201C12.4243 13.4417 10.3705 14.6129 8.09546 14.6129C5.8228 14.6129 3.76899 13.4393 2.60981 11.5201L3.91809 10.2118L4.81513 9.31481L5.71217 10.2118L8.09546 12.5951L10.4811 10.2118L11.3782 9.31481L12.4965 8.19652L13.3935 7.29948L15.5219 5.17111L15.2718 4.66367C13.9154 1.90762 11.1641 0.195312 8.09305 0.195312C5.02677 0.195312 2.27553 1.90522 0.919144 4.66367L0.669031 5.17111L2.7998 7.29948L3.91809 6.17878L2.60981 4.86569C3.76658 2.94415 5.8228 1.77535 8.09546 1.77535C10.3705 1.77535 12.4243 2.94415 13.5835 4.86569L12.2752 6.17397L11.3782 7.07101L10.4811 6.17878L8.09546 3.79309L5.71217 6.17878L4.81513 7.07101L3.69684 8.19171L2.7998 9.08634L0.666626 11.2195L0.916739 11.7294C2.27552 14.483 5.02676 16.1953 8.09546 16.1953C11.1666 16.1953 13.9178 14.483 15.2766 11.7294L15.5267 11.2195L13.3935 9.08875ZM6.83046 7.29707L8.09546 6.03208L9.36045 7.29707L10.2575 8.19411L9.36286 9.09115L8.09546 10.3561L5.93342 8.19411L6.83046 7.29707Z" fill="#FF2F00"/>
</svg>
