<svg width="31" height="31" viewBox="0 0 31 31" fill="none"
    xmlns="http://www.w3.org/2000/svg">
    <path d="M15.4998 3.875C14.0731 3.875 12.9165 5.0316 12.9165 6.45833V6.89932C9.90642 7.96323 7.74984 10.8339 7.74984 14.2083V20.6667H6.45817C5.7448 20.6667 5.1665 21.245 5.1665 21.9583C5.1665 22.6717 5.7448 23.25 6.45817 23.25H24.5415C25.2549 23.25 25.8332 22.6717 25.8332 21.9583C25.8332 21.245 25.2549 20.6667 24.5415 20.6667H23.2498V14.2083C23.2498 10.8339 21.0932 7.96323 18.0832 6.89932V6.45833C18.0832 5.0316 16.9266 3.875 15.4998 3.875Z" fill="white"/>
    <path d="M15.4998 27.125C14.0731 27.125 12.9165 25.9684 12.9165 24.5417H18.0832C18.0832 25.9684 16.9266 27.125 15.4998 27.125Z" fill="white"/>
</svg>
